<svg xmlns="http://www.w3.org/2000/svg"
    xmlns:xlink="http://www.w3.org/1999/xlink">
    <defs>
        <symbol id="arrow" viewbox="0 0 16 16">
            <path d="M15.12,7.11H3L8.63,1.52A.89.89,0,0,0,7.37.26L.26,7.37a.89.89,0,0,0,0,1.26h0l7.11,7.11a.89.89,0,0,0,1.26-1.26L3,8.89H15.12a.89.89,0,0,0,0-1.78Z"/>
        </symbol>
        <symbol id="bookmark" viewbox="0 0 12 16">
            <path d="M8,2H2a2,2,0,0,0-1.41.59A2,2,0,0,0,0,4V15.5a.48.48,0,0,0,.07.26.55.55,0,0,0,.19.18A.58.58,0,0,0,.52,16a.5.5,0,0,0,.26-.08L5,13.1l4.22,2.82a.5.5,0,0,0,.26.08.58.58,0,0,0,.26-.06.55.55,0,0,0,.19-.18A.48.48,0,0,0,10,15.5V4A2,2,0,0,0,8,2ZM9,14.57,5.28,12.08A.54.54,0,0,0,5,12a.57.57,0,0,0-.28.08L1,14.57V4a1,1,0,0,1,.29-.71A1,1,0,0,1,2,3H8A1,1,0,0,1,9,4Z"/>
            <path d="M11.41.59A2,2,0,0,0,10,0H4A2,2,0,0,0,3,.27,2,2,0,0,0,2.27,1H10a1,1,0,0,1,.71.29A1,1,0,0,1,11,2V13.77l.22.15a.5.5,0,0,0,.26.08.58.58,0,0,0,.26-.06.55.55,0,0,0,.19-.18A.48.48,0,0,0,12,13.5V2A2,2,0,0,0,11.41.59Z"/>
        </symbol>
        <symbol id="calendar" viewbox="0 0 16 16">
            <path d="M15.41,1.59A2,2,0,0,0,14,1H13V.5a.47.47,0,0,0-.15-.35.48.48,0,0,0-.7,0A.47.47,0,0,0,12,.5V1H4V.5A.47.47,0,0,0,3.85.15a.48.48,0,0,0-.7,0A.47.47,0,0,0,3,.5V1H2a2,2,0,0,0-1.41.59A2,2,0,0,0,0,3V14a2,2,0,0,0,.59,1.41A2,2,0,0,0,2,16H14a2,2,0,0,0,2-2V3A2,2,0,0,0,15.41,1.59ZM15,14a1,1,0,0,1-1,1H2a1,1,0,0,1-.71-.29A1,1,0,0,1,1,14V4H15Z"/>
        </symbol>
        <symbol id="check" viewbox="0 0 23 16">
            <path d="M22.92.62A1,1,0,0,0,22.7.29,1,1,0,0,0,22,0a1,1,0,0,0-.39.08,1,1,0,0,0-.32.21L8,13.58,1.71,7.29A1,1,0,0,0,1,7a1,1,0,0,0-.71.29,1,1,0,0,0,0,1.42l7,7a.93.93,0,0,0,.33.21.94.94,0,0,0,.76,0,1.15,1.15,0,0,0,.33-.21l14-14a.83.83,0,0,0,.22-.33A1,1,0,0,0,23,1,1,1,0,0,0,22.92.62Z"/>
        </symbol>
        <symbol id="chevron" viewbox="0 0 29.71 16">
            <path d="M29.62.71a1,1,0,0,0-.24-.37A1.19,1.19,0,0,0,29,.09,1,1,0,0,0,28.57,0a1.12,1.12,0,0,0-.44.09,1.05,1.05,0,0,0-.37.25l-12.9,12.9L2,.34A.94.94,0,0,0,1.58.09,1.12,1.12,0,0,0,1.14,0,1.07,1.07,0,0,0,.71.09.94.94,0,0,0,.34.34.94.94,0,0,0,.09.71,1.07,1.07,0,0,0,0,1.14a1.12,1.12,0,0,0,.09.44A.94.94,0,0,0,.34,2L14.05,15.66a.94.94,0,0,0,.37.25,1.12,1.12,0,0,0,.44.09,1.07,1.07,0,0,0,.43-.09.94.94,0,0,0,.37-.25L29.38,2a1,1,0,0,0,.24-.37,1.12,1.12,0,0,0,.09-.44A1.07,1.07,0,0,0,29.62.71Z"/>
        </symbol>
        <symbol id="close" viewbox="0 0 16 16">
            <path d="M15.66,14.05,9.62,8l6-6a.94.94,0,0,0,.25-.37A1.12,1.12,0,0,0,16,1.14a1.07,1.07,0,0,0-.09-.43.94.94,0,0,0-.25-.37,1.05,1.05,0,0,0-.37-.25A1.07,1.07,0,0,0,14.86,0a1.12,1.12,0,0,0-.44.09,1.05,1.05,0,0,0-.37.25L8,6.38l-6-6A.94.94,0,0,0,1.58.09,1.12,1.12,0,0,0,1.14,0,1.07,1.07,0,0,0,.71.09.94.94,0,0,0,.34.34.94.94,0,0,0,.09.71,1.07,1.07,0,0,0,0,1.14a1.12,1.12,0,0,0,.09.44A.94.94,0,0,0,.34,2L6.38,8l-6,6.05a1.05,1.05,0,0,0-.25.37,1.12,1.12,0,0,0-.09.44,1.07,1.07,0,0,0,.09.43,1.05,1.05,0,0,0,.25.37.94.94,0,0,0,.37.25,1.07,1.07,0,0,0,.43.09,1.12,1.12,0,0,0,.44-.09A.94.94,0,0,0,2,15.66L8,9.62l6.05,6a.94.94,0,0,0,.37.25,1.12,1.12,0,0,0,.44.09,1.07,1.07,0,0,0,.43-.09,1.17,1.17,0,0,0,.62-.62,1.07,1.07,0,0,0,.09-.43,1.12,1.12,0,0,0-.09-.44A.94.94,0,0,0,15.66,14.05Z"/>
        </symbol>
        <symbol id="collection" viewbox="0 0 18.29 16">
            <path d="M5.14,1.14h8A.62.62,0,0,0,13.55,1a.62.62,0,0,0,.16-.41.58.58,0,0,0-.16-.4A.58.58,0,0,0,13.14,0h-8a.56.56,0,0,0-.4.17.54.54,0,0,0-.17.4A.58.58,0,0,0,4.74,1,.59.59,0,0,0,5.14,1.14Z"/>
            <path d="M2.86,3.43H15.43a.54.54,0,0,0,.4-.17.56.56,0,0,0,.17-.4.58.58,0,0,0-.17-.41.58.58,0,0,0-.4-.16H2.86a.62.62,0,0,0-.41.16.62.62,0,0,0-.16.41.59.59,0,0,0,.16.4A.58.58,0,0,0,2.86,3.43Z"/>
            <path d="M17.78,5.07a1.7,1.7,0,0,0-1.21-.5H1.71a1.72,1.72,0,0,0-1.21.5A1.74,1.74,0,0,0,0,6.29v8A1.71,1.71,0,0,0,1.71,16H16.57a1.72,1.72,0,0,0,1.72-1.71v-8A1.71,1.71,0,0,0,17.78,5.07Zm-.64,9.22a.59.59,0,0,1-.16.4.58.58,0,0,1-.41.17H1.71a.58.58,0,0,1-.57-.57v-8a.57.57,0,0,1,.17-.41.56.56,0,0,1,.4-.17H16.57a.58.58,0,0,1,.41.17.6.6,0,0,1,.16.41Z"/>
        </symbol>
        <symbol id="delete" viewbox="0 0 13.87 16">
            <path d="M6.93,5.87A.51.51,0,0,0,6.56,6a.55.55,0,0,0-.16.38v6.4a.55.55,0,0,0,.16.38.51.51,0,0,0,.37.15.54.54,0,0,0,.38-.15.55.55,0,0,0,.16-.38V6.4A.55.55,0,0,0,7.31,6,.54.54,0,0,0,6.93,5.87Z"/>
            <path d="M4.27,5.87A.54.54,0,0,0,3.89,6a.55.55,0,0,0-.16.38v6.4a.55.55,0,0,0,.16.38.54.54,0,0,0,.38.15.51.51,0,0,0,.37-.15.55.55,0,0,0,.16-.38V6.4A.55.55,0,0,0,4.64,6,.51.51,0,0,0,4.27,5.87Z"/>
            <path d="M9.6,5.87a.51.51,0,0,0-.53.53v6.4a.53.53,0,1,0,1.06,0V6.4a.51.51,0,0,0-.53-.53Z"/>
            <path d="M13.55,1.38a1.06,1.06,0,0,0-.75-.31H9.07A1.07,1.07,0,0,0,8.75.31,1.06,1.06,0,0,0,8,0H5.87A1.06,1.06,0,0,0,4.8,1.07H1.07A1.06,1.06,0,0,0,0,2.13V3.2A1.06,1.06,0,0,0,.31,4a1.07,1.07,0,0,0,.76.32H1.6v9.6A2.12,2.12,0,0,0,3.73,16h6.4a2.13,2.13,0,0,0,1.51-.62,2.15,2.15,0,0,0,.63-1.51V4.27h.53A1.09,1.09,0,0,0,13.87,3.2V2.13A1.07,1.07,0,0,0,13.55,1.38ZM11.2,13.87a1.06,1.06,0,0,1-1.07,1.06H3.73a1.06,1.06,0,0,1-1.06-1.06V4.33l.12-.06h8.28l.13.06ZM12.8,3.2H1.07V2.13H12.8Z"/>
        </symbol>
        <symbol id="draft" viewbox="0 0 12 16">
            <path d="M7.5,0H2A2,2,0,0,0,.59.59,2,2,0,0,0,0,2V14a2,2,0,0,0,.59,1.41A2,2,0,0,0,2,16h8a2,2,0,0,0,2-2V4.5ZM11,14a1,1,0,0,1-1,1H2a1,1,0,0,1-.71-.29A1,1,0,0,1,1,14V2a1,1,0,0,1,.29-.71A1,1,0,0,1,2,1H7.5V3A1.5,1.5,0,0,0,9,4.5h2Z"/>
        </symbol>
        <symbol id="email" viewbox="0 0 21.33 16">
            <path d="M20.55.78A2.67,2.67,0,0,0,18.67,0h-16A2.66,2.66,0,0,0,0,2.67V13.33A2.66,2.66,0,0,0,2.67,16h16a2.66,2.66,0,0,0,2.66-2.67V2.67A2.67,2.67,0,0,0,20.55.78ZM1.33,12.15V4.51L7.68,8.32,1.33,12.15Zm18.15,2.24a1.35,1.35,0,0,1-.81.28h-16a1.3,1.3,0,0,1-.81-.28,1.28,1.28,0,0,1-.48-.71L9,9.09l1.7,1,1.69-1L20,13.68A1.32,1.32,0,0,1,19.48,14.39ZM20,4.51v7.64L13.66,8.32,20,4.51ZM20,3l-9.33,5.6L1.33,3V2.67A1.33,1.33,0,0,1,2.67,1.33h16A1.33,1.33,0,0,1,20,2.67Z"/>
        </symbol>
        <symbol id="exclamation" viewbox="0 0 16 16" height="16" width="16">
            <path d="M13.66,2.34A8,8,0,1,0,16,8,8,8,0,0,0,13.66,2.34ZM13,13A7,7,0,1,1,15,8,7,7,0,0,1,13,13Z"/>
            <path d="M7.45,8.5a.5.5,0,0,0,.18.36.53.53,0,0,0,.74,0,.5.5,0,0,0,.18-.36L8.9,5a1,1,0,0,0,0-.38.92.92,0,0,0-.19-.33.9.9,0,0,0-1.34,0,.92.92,0,0,0-.19.33A1,1,0,0,0,7.1,5Z"/>
            <path d="M8.71,10.29a.93.93,0,0,0-.33-.21.94.94,0,0,0-.76,0,.9.9,0,0,0-.54.54A1,1,0,0,0,7,11a1,1,0,0,0,.29.71A1.05,1.05,0,0,0,8,12a1,1,0,0,0,.71-.29,1,1,0,0,0,.22-1.09A1.19,1.19,0,0,0,8.71,10.29Z"/>
        </symbol>
        <symbol id="heart" viewbox="0 0 16 16">
            <path d="M8,1.4C3.56-3.46-7.53,5.05,8,16,23.53,5.05,12.44-3.46,8,1.4Z"/>
        </symbol>
        <symbol id="home" viewbox="0 0 17.4 16">
            <path d="M17.23,8.05,14.5,5.32V1.5a.58.58,0,0,0-.58-.58H12.76a.58.58,0,0,0-.58.58V3L9.52.34a1.16,1.16,0,0,0-1.64,0L.17,8.05A.58.58,0,1,0,1,8.87l.75-.75v6.14A1.74,1.74,0,0,0,3.48,16H13.92a1.74,1.74,0,0,0,1.74-1.74V8.12l.75.75a.58.58,0,0,0,.41.17.57.57,0,0,0,.41-.17.58.58,0,0,0,0-.82ZM14.5,14.26a.58.58,0,0,1-.58.58H3.48a.58.58,0,0,1-.58-.58V7l5.8-5.8L14.5,7Z"/>
        </symbol>
        <symbol id="info" viewbox="0 0 16 16">
            <path d="M13.66,2.34A8,8,0,1,0,16,8,8,8,0,0,0,13.66,2.34ZM13,13A7,7,0,1,1,15,8,7,7,0,0,1,13,13Z"/>
            <path d="M8.93,6.59l-2.29.29-.08.38L7,7.34c.29.07.35.17.29.47l-.74,3.47c-.2.89.1,1.31.81,1.31A2.09,2.09,0,0,0,8.83,12l.09-.42a1.09,1.09,0,0,1-.69.25c-.27,0-.37-.2-.3-.54Z"/>
            <path d="M8,3.5a1,1,0,0,0-.71,1.71A1,1,0,0,0,8.71,3.79,1,1,0,0,0,8,3.5Z"/>
        </symbol>
        <symbol id="journal" viewbox="0 0 15 16">
            <path d="M14.41.59A2,2,0,0,0,13,0H3A2,2,0,0,0,1.59.59,2,2,0,0,0,1,2V3H2V2a1,1,0,0,1,.29-.71A1,1,0,0,1,3,1H13a1,1,0,0,1,.71.29A1,1,0,0,1,14,2V14a1,1,0,0,1-1,1H3a1,1,0,0,1-1-1V13H1v1a2,2,0,0,0,2,2H13a2,2,0,0,0,2-2V2A2,2,0,0,0,14.41.59Z"/>
            <path d="M.5,6h2a.5.5,0,0,0,.35-.85A.47.47,0,0,0,2.5,5H2V4.5a.47.47,0,0,0-.15-.35.48.48,0,0,0-.7,0A.47.47,0,0,0,1,4.5V5H.5a.47.47,0,0,0-.35.15.48.48,0,0,0,0,.7A.47.47,0,0,0,.5,6Z"/>
            <path d="M2.85,11.85A.5.5,0,0,0,2.5,11H2v-.5a.47.47,0,0,0-.15-.35.48.48,0,0,0-.7,0A.47.47,0,0,0,1,10.5V11H.5a.47.47,0,0,0-.35.15.48.48,0,0,0,0,.7A.47.47,0,0,0,.5,12h2A.47.47,0,0,0,2.85,11.85Z"/>
            <path d="M.5,9h2a.5.5,0,0,0,0-1H2V7.5a.47.47,0,0,0-.15-.35.48.48,0,0,0-.7,0A.47.47,0,0,0,1,7.5V8H.5a.47.47,0,0,0-.35.15.48.48,0,0,0,0,.7A.47.47,0,0,0,.5,9Z"/>
        </symbol>
        <symbol id="key" viewbox="0 0 31.99 16">
            <path d="M31.91,7.62a1.15,1.15,0,0,0-.21-.33l-3-3a1.15,1.15,0,0,0-.33-.21A1,1,0,0,0,28,4H14.92A8,8,0,0,0,11.06.61,8,8,0,1,0,5.93,15.73a8.06,8.06,0,0,0,5.13-.34A8,8,0,0,0,14.92,12H16a1,1,0,0,0,.39-.08,1,1,0,0,0,.32-.21L18,10.41l1.29,1.3a1.15,1.15,0,0,0,.33.21A1,1,0,0,0,20,12a1.09,1.09,0,0,0,.39-.08,1,1,0,0,0,.32-.21L22,10.41l1.29,1.3a1.15,1.15,0,0,0,.33.21.94.94,0,0,0,.76,0,.93.93,0,0,0,.33-.21L26,10.41l1.29,1.3a.93.93,0,0,0,.33.21.94.94,0,0,0,.76,0,1.15,1.15,0,0,0,.33-.21l3-3a1.15,1.15,0,0,0,.21-.33.94.94,0,0,0,0-.76ZM28,9.59,26.7,8.29a1.19,1.19,0,0,0-.33-.22,1.07,1.07,0,0,0-.76,0,1.06,1.06,0,0,0-.33.22L24,9.59,22.7,8.29a1,1,0,0,0-.33-.22,1.07,1.07,0,0,0-.76,0,1.19,1.19,0,0,0-.33.22L20,9.59,18.7,8.29a1,1,0,0,0-.32-.22A1.07,1.07,0,0,0,18,8a1,1,0,0,0-.38.07,1,1,0,0,0-.32.22L15.58,10H14.32a1,1,0,0,0-.53.15,1,1,0,0,0-.37.42A6,6,0,0,1,11.36,13a6,6,0,0,1-8.43-1.76,6,6,0,0,1-.19-6.1A6,6,0,0,1,11.2,2.93a6,6,0,0,1,2.22,2.5,1,1,0,0,0,.37.42,1,1,0,0,0,.53.15H27.58l2,2Z"/>
            <path d="M6,6a2,2,0,1,0,0,4A2,2,0,0,0,6,6Z"/>
        </symbol>
        <symbol id="lightbulb" viewbox="0 0 12 16">
            <path d="M11.9,4.9A6,6,0,0,0,8.34.48,5.85,5.85,0,0,0,5.45,0,5.91,5.91,0,0,0,2.69,1a6,6,0,0,0-2,2.16A6,6,0,0,0,.47,8.34a6.1,6.1,0,0,0,1.36,2,1.87,1.87,0,0,1,.45.62L3,12.7a.55.55,0,0,0,.18.22A.57.57,0,0,0,3.5,13a.5.5,0,0,0,0,1,.5.5,0,0,0,0,1l.22.45a1.09,1.09,0,0,0,.37.4,1,1,0,0,0,.53.15H7.38a1,1,0,0,0,.53-.15,1.09,1.09,0,0,0,.37-.4L8.5,15a.5.5,0,0,0,0-1,.5.5,0,0,0,0-1A.51.51,0,0,0,9,12.7l.76-1.77a2.12,2.12,0,0,1,.45-.62,5.9,5.9,0,0,0,1.55-2.49A6,6,0,0,0,11.9,4.9ZM10.89,7A4.89,4.89,0,0,1,9.48,9.59a3.29,3.29,0,0,0-.68.94L8.17,12H3.83L3.2,10.53a3.11,3.11,0,0,0-.68-.94A5,5,0,0,1,1.36,4.12,5.07,5.07,0,0,1,3.21,1.85,5,5,0,0,1,6,1a5.07,5.07,0,0,1,2.8.85,5.11,5.11,0,0,1,1.84,2.27A5,5,0,0,1,10.89,7Z"/>
        </symbol>
        <symbol id="logout" viewbox="0 0 21.33 16">
            <path d="M20.75.59A2,2,0,0,0,19.33,0H8.67a2,2,0,0,0-2,2V4.67a.67.67,0,0,0,1.14.47A.7.7,0,0,0,8,4.67V2a.63.63,0,0,1,.2-.47.63.63,0,0,1,.47-.2H19.33a.67.67,0,0,1,.48.2A.67.67,0,0,1,20,2V14a.67.67,0,0,1-.19.47.67.67,0,0,1-.48.2H8.67A.68.68,0,0,1,8,14V11.33a.67.67,0,0,0-1.14-.47.7.7,0,0,0-.19.47V14a2,2,0,0,0,2,2H19.33a2,2,0,0,0,2-2V2A2,2,0,0,0,20.75.59Z"/>
            <path d="M5.14,11.53,2.28,8.67H14a.67.67,0,0,0,0-1.34H2.28L5.14,4.47a.6.6,0,0,0,.14-.21.59.59,0,0,0,0-.52.6.6,0,0,0-.14-.21.86.86,0,0,0-.22-.15.7.7,0,0,0-.25,0,.75.75,0,0,0-.26,0,.8.8,0,0,0-.21.15l-4,4a.51.51,0,0,0-.15.21.7.7,0,0,0,0,.52.51.51,0,0,0,.15.21l4,4a.8.8,0,0,0,.21.15.75.75,0,0,0,.26.05.7.7,0,0,0,.25-.05.86.86,0,0,0,.22-.15.6.6,0,0,0,.14-.21.59.59,0,0,0,0-.52A.6.6,0,0,0,5.14,11.53Z"/>
        </symbol>
        <symbol id="pen" viewbox="0 0 16 16">
            <path d="M15.91,1.7a1.27,1.27,0,0,0,0-.94,1.23,1.23,0,0,0-.27-.4,1.41,1.41,0,0,0-.4-.27,1.27,1.27,0,0,0-.94,0,1.56,1.56,0,0,0-.4.27l-.15.15a1.53,1.53,0,0,0-1-.39,1.55,1.55,0,0,0-1,.39A1.53,1.53,0,0,0,10.65.12a1.57,1.57,0,0,0-1,.45L6.26,3.93a.46.46,0,0,0-.11.16.45.45,0,0,0,0,.2.43.43,0,0,0,0,.19.62.62,0,0,0,.11.17.71.71,0,0,0,.17.11.58.58,0,0,0,.19,0,.71.71,0,0,0,.2,0A.91.91,0,0,0,7,4.65l3.35-3.36a.56.56,0,0,1,.32-.15.58.58,0,0,1,.34.09L1.17,11.06a.49.49,0,0,0-.14.23L0,15.37a.46.46,0,0,0,0,.26.5.5,0,0,0,.13.22A.5.5,0,0,0,.37,16a.46.46,0,0,0,.26,0l4.08-1a.49.49,0,0,0,.23-.14L15.43,4.35a1.62,1.62,0,0,0,.45-1,1.53,1.53,0,0,0-.39-1.06l.15-.15A1.41,1.41,0,0,0,15.91,1.7ZM14.82,3.46a.62.62,0,0,1-.11.17L4.32,14l-3.11.78L2,11.68,12.37,1.29a.55.55,0,0,1,.36-.15.51.51,0,0,1,.36.15h0l1.62,1.62a.46.46,0,0,1,.11.16.45.45,0,0,1,0,.2A.43.43,0,0,1,14.82,3.46Z"/>
        </symbol>
        <symbol id="question" viewbox="0 0 16 16">
            <path d="M13.66,2.34A8,8,0,1,0,16,8,8,8,0,0,0,13.66,2.34ZM13,13A7,7,0,1,1,15,8,7,7,0,0,1,13,13Z"/>
            <path d="M7.82,10.61a.94.94,0,1,0,0,1.87.94.94,0,1,0,0-1.87Z"/>
            <path d="M8,3.5A2.47,2.47,0,0,0,5.25,5.79a.29.29,0,0,0,0,.09A.22.22,0,0,0,5.32,6L5.4,6h.92a.28.28,0,0,0,.27-.25A1.25,1.25,0,0,1,7.93,4.65,1.16,1.16,0,0,1,9.24,5.82c0,.63-.37.92-1,1.37a2.26,2.26,0,0,0-1.17,2v.22a.25.25,0,0,0,.08.18.26.26,0,0,0,.17.07h.81a.25.25,0,0,0,.18-.08.22.22,0,0,0,.07-.17V9.28c0-.72.28-.92,1-1.48a2.46,2.46,0,0,0,1.25-2.06C10.68,4.23,9.4,3.5,8,3.5Z"/>
        </symbol>
        <symbol id="reset" viewbox="0 0 14 16">
            <path d="M13.72,7A7,7,0,0,0,7,2V.29A.27.27,0,0,0,7,.14.22.22,0,0,0,6.83,0a.29.29,0,0,0-.16,0,.3.3,0,0,0-.15.07L3.77,2.36a.39.39,0,0,0-.08.1.27.27,0,0,0,0,.12.28.28,0,0,0,0,.13.39.39,0,0,0,.08.1L6.52,5.1a.3.3,0,0,0,.15.07.29.29,0,0,0,.16,0A.22.22,0,0,0,7,5a.27.27,0,0,0,0-.15V3.17a5.88,5.88,0,0,1,3.5,1.16,5.94,5.94,0,0,1,2.1,3A5.87,5.87,0,0,1,12.46,11a5.79,5.79,0,0,1-2.31,2.87,5.88,5.88,0,0,1-3.58.91A5.83,5.83,0,0,1,1.7,6.57a.61.61,0,0,0,0-.44.54.54,0,0,0-.3-.31.58.58,0,0,0-.43,0,.59.59,0,0,0-.33.29,7,7,0,0,0,1.77,8.2,7,7,0,0,0,11.15-2.83A7.11,7.11,0,0,0,13.72,7Z"/>
        </symbol>
        <symbol id="search" viewbox="0 0 16 16">
            <path d="M15.71,14.29l-3.85-3.85a1.27,1.27,0,0,0-.12-.1A6.51,6.51,0,0,0,6.25,0a6.5,6.5,0,1,0,4.1,11.74l.09.12,3.85,3.85A1.05,1.05,0,0,0,15,16a1,1,0,0,0,.71-.29,1,1,0,0,0,0-1.42Zm-5.32-3.9a5.62,5.62,0,0,1-1.78,1.19A5.48,5.48,0,0,1,6.5,12a5.39,5.39,0,0,1-2.1-.42,5.44,5.44,0,0,1-3-3A5.39,5.39,0,0,1,1,6.5a5.5,5.5,0,1,1,11,0,5.55,5.55,0,0,1-1.61,3.89Z"/>
        </symbol>
        <symbol id="settings" viewbox="0 0 16 16">
            <path d="M8,4.75a3.24,3.24,0,1,0,2.3,1A3.27,3.27,0,0,0,8,4.75ZM9.59,9.59A2.25,2.25,0,1,1,10.25,8,2.25,2.25,0,0,1,9.59,9.59Z"/>
            <path d="M14.66,6.2l-.32-.09A.88.88,0,0,1,14,5.92a.84.84,0,0,1-.22-.31,1,1,0,0,1-.07-.38,1,1,0,0,1,.11-.38L14,4.56A1.87,1.87,0,0,0,11.44,2l-.29.16a1,1,0,0,1-.38.11,1,1,0,0,1-.38-.07A.84.84,0,0,1,10.08,2a.88.88,0,0,1-.19-.34L9.8,1.34a1.88,1.88,0,0,0-3.6,0l-.09.32A.88.88,0,0,1,5.92,2a.84.84,0,0,1-.31.22,1,1,0,0,1-.38.07,1,1,0,0,1-.38-.11L4.56,2A1.87,1.87,0,0,0,2,4.56l.16.29a1,1,0,0,1,.11.38,1,1,0,0,1-.07.38A.84.84,0,0,1,2,5.92a.88.88,0,0,1-.34.19l-.32.09a1.88,1.88,0,0,0,0,3.6l.32.09a.88.88,0,0,1,.34.19.84.84,0,0,1,.22.31,1,1,0,0,1,.07.38,1,1,0,0,1-.11.38L2,11.44A1.87,1.87,0,0,0,4.56,14l.29-.16a1,1,0,0,1,.38-.11,1,1,0,0,1,.38.07.84.84,0,0,1,.31.22.88.88,0,0,1,.19.34l.09.32a1.88,1.88,0,0,0,3.6,0l.09-.32a.88.88,0,0,1,.19-.34.84.84,0,0,1,.31-.22,1,1,0,0,1,.38-.07,1,1,0,0,1,.38.11l.29.16A1.87,1.87,0,0,0,14,11.44l-.16-.29a1,1,0,0,1-.11-.38,1,1,0,0,1,.07-.38.84.84,0,0,1,.22-.31.88.88,0,0,1,.34-.19l.32-.09A1.88,1.88,0,0,0,14.66,6.2Zm-.29,2.64-.31.09a2,2,0,0,0-.73.4,1.91,1.91,0,0,0-.48.68,2.08,2.08,0,0,0-.14.82,2,2,0,0,0,.23.79l.16.3a.87.87,0,0,1-1.18,1.18l-.3-.16a2,2,0,0,0-.79-.23,2.08,2.08,0,0,0-.82.14,2,2,0,0,0-.68.48,2,2,0,0,0-.4.73l-.09.31a.88.88,0,0,1-1.68,0l-.09-.31a2,2,0,0,0-.4-.73A2,2,0,0,0,6,12.85a2.08,2.08,0,0,0-.82-.14,2,2,0,0,0-.79.23l-.3.16A.87.87,0,0,1,2.9,11.92l.16-.3a2,2,0,0,0,.23-.79A2.08,2.08,0,0,0,3.15,10a1.91,1.91,0,0,0-.48-.68,2,2,0,0,0-.73-.4l-.31-.09a.87.87,0,0,1,0-1.68l.31-.09a1.89,1.89,0,0,0,.73-.41,1.88,1.88,0,0,0,.61-1.49,1.8,1.8,0,0,0-.22-.79l-.16-.3A.87.87,0,0,1,4.08,2.9l.3.16a2,2,0,0,0,.79.23A2.08,2.08,0,0,0,6,3.15a2,2,0,0,0,.68-.48,2,2,0,0,0,.4-.73l.09-.31a.87.87,0,0,1,1.68,0l.09.31a2,2,0,0,0,.4.73,1.91,1.91,0,0,0,.68.48,2.08,2.08,0,0,0,.82.14,2,2,0,0,0,.79-.23l.3-.16A.87.87,0,0,1,13.1,4.08l-.16.3a1.8,1.8,0,0,0-.22.79,1.78,1.78,0,0,0,.14.82,1.89,1.89,0,0,0,.47.68,2,2,0,0,0,.73.4l.31.09A.88.88,0,0,1,14.37,8.84Z"/>
        </symbol>
        <symbol id="up" viewbox="0 0 15.92 16">
            <path d="M10.67,12.75H5.25a1,1,0,0,0-.76.32,1.05,1.05,0,0,0-.32.76v1.09a1.05,1.05,0,0,0,.32.76,1,1,0,0,0,.76.32h5.42a1,1,0,0,0,.76-.32,1.05,1.05,0,0,0,.32-.76V13.83a1.05,1.05,0,0,0-.32-.76A1,1,0,0,0,10.67,12.75Zm0,2.17H5.25V13.83h5.42Z"/>
            <path d="M15.62,7.68,8.75.34A1,1,0,0,0,8.39.09,1.07,1.07,0,0,0,8,0a1,1,0,0,0-.43.09,1,1,0,0,0-.36.25L.29,7.68a1.09,1.09,0,0,0,.8,1.82H4.17v1.08a1.06,1.06,0,0,0,.32.77,1.07,1.07,0,0,0,.76.32h5.42a1.07,1.07,0,0,0,.76-.32,1.06,1.06,0,0,0,.32-.77V9.5h3.08A1.08,1.08,0,0,0,15.62,7.68Zm-3.87.74A1.08,1.08,0,0,0,10.67,9.5v1.08H5.25V9.5A1.08,1.08,0,0,0,4.17,8.42H1.09L8,1.08l6.87,7.34Z"/>
        </symbol>
        <symbol id="user" viewbox="0 0 16 16">
            <path d="M8,9.33c-6.67,0-8,4-8,5.34A1.3,1.3,0,0,0,1.33,16H14.67A1.3,1.3,0,0,0,16,14.67C16,13.33,14.67,9.33,8,9.33ZM1.33,14.66a3.65,3.65,0,0,1,1.11-2.22C3.31,11.57,5,10.67,8,10.67s4.69.9,5.56,1.77a3.59,3.59,0,0,1,1.11,2.22Z"/>
            <path d="M8,8A4,4,0,1,0,5.17,6.83,4,4,0,0,0,8,8ZM6.11,2.11A2.68,2.68,0,1,1,5.33,4,2.67,2.67,0,0,1,6.11,2.11Z"/>
        </symbol>
    </defs>
</svg>