<svg xmlns="http://www.w3.org/2000/svg" viewBox="0 0 212.3 60">
    <defs>
        <style>.cls-1{fill:#404040;}.cls-2{fill:#9fdf9f;}</style>
    </defs>
    <path class="cls-1" d="M39.83,9.91q0-2.4-3.27-3.21A52,52,0,0,0,24.07,5.33Q0,5.33,0,19.08a11.53,11.53,0,0,0,1.6,6.13,3.12,3.12,0,0,0,2.81,1.55,4.25,4.25,0,0,0,2.64-.91,2.77,2.77,0,0,0,1.26-2.18A2.43,2.43,0,0,0,8,22.46a7.49,7.49,0,0,1-1.15-3.72q0-3.49,3.78-5t11.75-1.55q3,0,6.42.34l-1,8.66q-.34,3.21-1,7.27a48.64,48.64,0,0,0-16.27,9.29Q4.3,43.26,4.3,50.54a9.31,9.31,0,0,0,2.63,6.77A10.1,10.1,0,0,0,14.38,60q16.17,0,21.26-38c0-.31.25-1.8.64-4.47.26-2,.43-3.39.51-4.19a2.75,2.75,0,0,0,2.29-.86A3.82,3.82,0,0,0,39.83,9.91ZM20.75,49.63c-1.88,2.82-3.75,4.24-5.62,4.24a3.22,3.22,0,0,1-2.52-1,4.6,4.6,0,0,1-.92-3q0-8.88,14-15Q23.56,45.38,20.75,49.63Z"/>
    <path class="cls-1" d="M137,27.16a8.53,8.53,0,0,0-4.18,1.32,16.79,16.79,0,0,0-4.58,4.41,32.88,32.88,0,0,0-4.25,8,42.49,42.49,0,0,1,.58-4.24c.23-1.15.53-2.49.91-4a21.13,21.13,0,0,0,.86-4.12,1.19,1.19,0,0,0-.45-1.09,3.25,3.25,0,0,0-1.61-.29A5.88,5.88,0,0,0,121,28a4.13,4.13,0,0,0-1.66,2.4,43.85,43.85,0,0,0-1.73,7.94,4.44,4.44,0,0,1-2.46,1.06c-1,0-1.43-.67-1.43-2a21.55,21.55,0,0,1,.45-2.86,28.07,28.07,0,0,0,.52-3.61q0-3.74-3.73-3.73a8.53,8.53,0,0,0-4.18,1.32,16.79,16.79,0,0,0-4.58,4.41,32.54,32.54,0,0,0-4.24,8,40,40,0,0,1,.57-4.24c.23-1.15.53-2.49.92-4a22,22,0,0,0,.86-4.12,1.19,1.19,0,0,0-.46-1.09,3.25,3.25,0,0,0-1.61-.29,5.88,5.88,0,0,0-3.32.81,4.13,4.13,0,0,0-1.66,2.4,46.11,46.11,0,0,0-2.1,13.11,40.16,40.16,0,0,1-2.88,3,4.45,4.45,0,0,1-2.7,1.37,1.46,1.46,0,0,1-1.2-.57,2.85,2.85,0,0,1-.46-1.72,63.77,63.77,0,0,1,1.61-9.06A55.79,55.79,0,0,0,87,28.65a1.17,1.17,0,0,0-.52-1.14,3.47,3.47,0,0,0-1.83-.35,4.66,4.66,0,0,0-2.87.75,4.56,4.56,0,0,0-1.37,2.46A65.72,65.72,0,0,1,77.5,39a23.09,23.09,0,0,1-2.75,5.21c-.84,1.15-1.55,1.72-2.12,1.72a1,1,0,0,1-.92-.46,3.77,3.77,0,0,1-.28-1.72,54.56,54.56,0,0,1,1.14-8c.23-1.14.54-2.42.92-3.84a23.75,23.75,0,0,0,.63-3.09,1.45,1.45,0,0,0-.51-1.21,2.75,2.75,0,0,0-1.72-.4,5.64,5.64,0,0,0-3.27.75A4.75,4.75,0,0,0,67,30.37a49.7,49.7,0,0,0-1.68,6.45,31,31,0,0,1-4.64.72,12.6,12.6,0,0,0-3.15-7.4,8.82,8.82,0,0,0-7-3,11.5,11.5,0,0,0-6.48,1.94,12.88,12.88,0,0,0-4.58,5.33,17.33,17.33,0,0,0-1.66,7.74,14.12,14.12,0,0,0,1.26,6,10.68,10.68,0,0,0,3.66,4.41,10.31,10.31,0,0,0,5.91,1.66A10.64,10.64,0,0,0,56,51.29a14.48,14.48,0,0,0,4.29-7.74A27.49,27.49,0,0,0,64.62,43c0,.91-.07,1.84-.07,2.82a10.54,10.54,0,0,0,1.61,6,5,5,0,0,0,4.24,2.34,5.7,5.7,0,0,0,4.18-2.06,13.62,13.62,0,0,0,2.92-6,11.72,11.72,0,0,0,1.26,6,4.45,4.45,0,0,0,4.07,2.12,11,11,0,0,0,6.42-1.94,25,25,0,0,0,2.34-1.85,9.16,9.16,0,0,0,.41,1.5,3.17,3.17,0,0,0,3.09,2.29,3.26,3.26,0,0,0,2.58-.91,8.93,8.93,0,0,0,1.49-3.67,41.53,41.53,0,0,1,2.23-6.65,27.1,27.1,0,0,1,2.76-5c.95-1.3,1.71-2,2.29-2,.42,0,.63.31.63.92,0,.27,0,.78-.12,1.55a9,9,0,0,0-.17,1.71,5.67,5.67,0,0,0,1.55,4.19A6.44,6.44,0,0,0,113,45.85a9.37,9.37,0,0,0,4.25-1,22.27,22.27,0,0,0,.85,7,3.19,3.19,0,0,0,3.1,2.29,3.28,3.28,0,0,0,2.58-.91,8.93,8.93,0,0,0,1.49-3.67,41.53,41.53,0,0,1,2.23-6.65,33.69,33.69,0,0,1,2.75-5c.92-1.3,1.63-2,2.12-2s.63.31.63.92a52.57,52.57,0,0,1-.68,5.84,57.08,57.08,0,0,0-.81,7.57,4.31,4.31,0,0,0,.86,2.92,3.5,3.5,0,0,0,2.75,1,3.8,3.8,0,0,0,2.87-.91,4.51,4.51,0,0,0,.92-3.15,63.18,63.18,0,0,1,.34-6.94q.34-3.15.92-6.65a45.39,45.39,0,0,0,.63-5.61A3.4,3.4,0,0,0,137,27.16ZM52.28,46.59a4.08,4.08,0,0,1-3.15,1.49,3.63,3.63,0,0,1-2.93-1.66A8.16,8.16,0,0,1,45,41.6a10.89,10.89,0,0,1,1.49-6.18,4.56,4.56,0,0,1,3.84-2.24h.29A9.46,9.46,0,0,0,50.44,35a9.59,9.59,0,0,0,.92,4.13,8.14,8.14,0,0,0,2.75,3.15A8.14,8.14,0,0,1,52.28,46.59Z"/>
    <path class="cls-2" d="M208.29,45.21a1.91,1.91,0,0,0-1.26.58,9.11,9.11,0,0,1-2.29,1.49,5.16,5.16,0,0,1-2.18.57,3.8,3.8,0,0,1-2.81-1,6.22,6.22,0,0,1-1.43-3.38,84,84,0,0,0,10.2-17.77q3.78-9,3.78-15.81,0-4.75-1.6-7.28A4.79,4.79,0,0,0,206.4,0Q201.53,0,198,6.42a55.22,55.22,0,0,0-5.33,15.36,82.32,82.32,0,0,0-1.78,15.93,34.58,34.58,0,0,0,.35,5,29.31,29.31,0,0,1-3.8,3.78,6.72,6.72,0,0,1-4.12,1.32,3.14,3.14,0,0,1-2.41-1,6.92,6.92,0,0,1-1.32-3.38,87.57,87.57,0,0,0,10.26-17.83q3.78-9,3.78-15.81,0-4.75-1.6-7.28A4.79,4.79,0,0,0,187.71,0q-4.87,0-8.43,6.42A55.22,55.22,0,0,0,174,21.78a82.32,82.32,0,0,0-1.78,15.93,35,35,0,0,0,.34,5.08,47,47,0,0,1-3.42,3.69,4.41,4.41,0,0,1-2.64,1.37,1.45,1.45,0,0,1-1.14-.51,2.2,2.2,0,0,1-.4-1.38,56.27,56.27,0,0,1,1.31-9.17,41.91,41.91,0,0,0,.86-5.73c0-1.34-.93-2-2.8-2a13.84,13.84,0,0,0-2.53.23,3.71,3.71,0,0,0-.74-1.72,2.07,2.07,0,0,0-1.66-.51,12.77,12.77,0,0,0-7.51,2.52,18,18,0,0,0-5.62,6.59,18.5,18.5,0,0,0-2.12,8.65,10.35,10.35,0,0,0,2.12,6.77,7,7,0,0,0,5.68,2.57q4.53,0,7.5-4.81a8.17,8.17,0,0,0,2.35,3.55,5.55,5.55,0,0,0,3.5,1.26,8.48,8.48,0,0,0,5.1-2,28,28,0,0,0,3.78-3.51c.14.31.29.63.45.93a8,8,0,0,0,7.5,4.58,11.34,11.34,0,0,0,6.54-1.94,23.62,23.62,0,0,0,4.23-3.66c.17.37.34.73.53,1.08a8.47,8.47,0,0,0,8,4.52,10.34,10.34,0,0,0,6.76-2.46,4.72,4.72,0,0,0,1.72-3.84,3.38,3.38,0,0,0-.46-1.83A1.22,1.22,0,0,0,208.29,45.21ZM158,42.92a9.69,9.69,0,0,1-1.66,4A3.17,3.17,0,0,1,154,48.37a2.54,2.54,0,0,1-2-.86,4.25,4.25,0,0,1-.68-2.64,15.54,15.54,0,0,1,1.2-6.07,12.05,12.05,0,0,1,3.21-4.59,7,7,0,0,1,4.47-1.83Zm22.51-20.69a78.05,78.05,0,0,1,2.92-11.8q1.67-4.75,3-4.76c1.07,0,1.6,1.46,1.6,4.36a37.2,37.2,0,0,1-2.4,12.32,74.8,74.8,0,0,1-6.48,13.41A84.84,84.84,0,0,1,180.55,22.23Zm18.69,0a78.05,78.05,0,0,1,2.92-11.8q1.67-4.75,3-4.76c1.07,0,1.6,1.46,1.6,4.36a37.2,37.2,0,0,1-2.4,12.32,74.8,74.8,0,0,1-6.48,13.41A86,86,0,0,1,199.24,22.23Z"/>
</svg>